<?xml version="1.0" encoding="utf-8"?>
<!-- Generator: Adobe Illustrator 19.0.0, SVG Export Plug-In . SVG Version: 6.00 Build 0)  -->
<svg version="1.1" id="Layer_1" xmlns="http://www.w3.org/2000/svg" xmlns:xlink="http://www.w3.org/1999/xlink" x="0px" y="0px"
	 width="100px" height="100px" viewBox="-973 719 100 100" style="enable-background:new -973 719 100 100;" xml:space="preserve">
<style type="text/css">
	.st0{fill:url(#SVGID_1_);}
	.st1{fill:#898989;}
</style>
<g>
	
		<radialGradient id="SVGID_1_" cx="-925.1125" cy="767.4683" r="46.6581" gradientTransform="matrix(1.028 0 0 1.028 27.2018 -20.1755)" gradientUnits="userSpaceOnUse">
		<stop  offset="0" style="stop-color:#FFF33B"/>
		<stop  offset="0" style="stop-color:#FFD53F"/>
		<stop  offset="0" style="stop-color:#FBBC40"/>
		<stop  offset="0" style="stop-color:#F7A840"/>
		<stop  offset="0" style="stop-color:#F59B40"/>
		<stop  offset="0" style="stop-color:#F3933F"/>
		<stop  offset="0" style="stop-color:#F3903F"/>
		<stop  offset="0.3876" style="stop-color:#ED683C"/>
		<stop  offset="1" style="stop-color:#E93E3A"/>
	</radialGradient>
	<path class="st0" d="M-923.4,767.8l-11.7-47.6c-18.5,5.1-32.8,20.3-36.6,39.2L-923.4,767.8z"/>
</g>
<g>
	<path class="st1" d="M-919.4,770.6l14.2,43.6c18.2-6.6,31.2-24,31.2-44.5c0-5.9-1.1-11.6-3.1-16.8L-919.4,770.6z"/>
	<path class="st1" d="M-920.3,767.6l41.9-17.6c-7.5-16.3-23.9-27.6-43-27.6c-3.3,0-6.6,0.4-9.7,1L-920.3,767.6z"/>
	<path class="st1" d="M-923.4,767.8l-10.7-43.6"/>
	<path class="st1" d="M-953.2,804.7l29-33.9l-43.9-7.6c-0.3,2.1-0.5,4.3-0.5,6.6C-968.6,783.6-962.7,796-953.2,804.7z"/>
	<path class="st1" d="M-921.9,772.8l-28.9,33.8c8.1,6.5,18.4,10.4,29.5,10.4c4.6,0,9-0.7,13.2-1.9L-921.9,772.8z"/>
</g>
</svg>
